# xmcd
#
# Track frame offsets:
#	150
#	25494
#	66648
#	101452
#	129732
#	153996
#	171865
#	209223
#	248398
#	274613
#	292906
#
# Disc length: 4412 seconds
#
# Revision: 1
# Processed by: cddbd v1.5.1PL2 Copyright (c) Steve Scherf et al.
# Submitted via: EasyCDDAExtractor 9.0.0.1
#
DISCID=a2113a0b
DTITLE=Guns and Roses  - Auditorio Parque Juan Carlos I  Madrid 25-05-06 Disc 2
DYEAR=2006
DGENRE=Hard Rock
TTITLE0=Bumblefoot Guitar Solo
TTITLE1=November Rain
TTITLE2=There Was A Time
TTITLE3=Beautiful
TTITLE4=Chinese Democracy
TTITLE5=My Michelle
TTITLE6=Patience
TTITLE7=Nightrain 
TTITLE8=Madagascar
TTITLE9=Robin Guitar Solo
TTITLE10=Paradise City
EXTD=
EXTT0=
EXTT1=
EXTT2=
EXTT3=
EXTT4=
EXTT5=
EXTT6=
EXTT7=
EXTT8=
EXTT9=
EXTT10=
PLAYORDER=
